<svg width="410" height="404" viewBox="0 0 410 404" fill="none" xmlns="http://www.w3.org/2000/svg">
  <path d="M399.641 59.5247L214.476 10.9858L231.438 190.195L353.874 81.269C367.083 69.5284 386.226 54.613 399.641 59.5247Z" fill="#FFDD54"/>
  <path d="M399.641 59.5247L214.476 10.9858L231.438 190.195L353.874 81.269C367.083 69.5284 386.226 54.613 399.641 59.5247Z" fill="url(#paint0_linear)"/>
  <path d="M330.274 98.3964L194.185 281.93C190.678 286.729 183.589 284.117 183.589 278.336L195.638 102.133C195.638 98.2971 192.395 95.2012 188.46 95.3829L92.3301 100.174C86.6858 100.438 83.699 107.152 87.6224 111.539L233.66 282.693C237.587 287.072 244.292 284.564 244.292 278.832L234.116 135.27C234.116 131.861 237.041 129.105 240.586 129.105L325.538 129.105C330.785 129.105 333.682 122.995 330.274 98.3964Z" fill="#646CFF"/>
  <path d="M330.274 98.3964L194.185 281.93C190.678 286.729 183.589 284.117 183.589 278.336L195.638 102.133C195.638 98.2971 192.395 95.2012 188.46 95.3829L92.3301 100.174C86.6858 100.438 83.699 107.152 87.6224 111.539L233.66 282.693C237.587 287.072 244.292 284.564 244.292 278.832L234.116 135.27C234.116 131.861 237.041 129.105 240.586 129.105L325.538 129.105C330.785 129.105 333.682 122.995 330.274 98.3964Z" fill="url(#paint1_linear)"/>
  <defs>
    <linearGradient id="paint0_linear" x1="214.476" y1="10.9858" x2="319.749" y2="178.603" gradientUnits="userSpaceOnUse">
      <stop stop-color="#FFDD54"/>
      <stop offset="1" stop-color="#FFDD54" stop-opacity="0"/>
    </linearGradient>
    <linearGradient id="paint1_linear" x1="146.376" y1="132.19" x2="250.013" y2="255.003" gradientUnits="userSpaceOnUse">
      <stop stop-color="#646CFF"/>
      <stop offset="1" stop-color="#646CFF" stop-opacity="0"/>
    </linearGradient>
  </defs>
</svg>
